ModelForces
version=1
nRows=4
nColumns=155
inDegrees=no

This file contains the forces exerted on a model during a simulation.

A force is a generalized force, meaning that it can be either a force (N) or a torque (Nm).

Units are S.I. units (second, meters, Newtons, ...)
Angles are in degrees.

endheader
time	glut_med1_r	glut_med2_r	glut_med3_r	glut_min1_r	glut_min2_r	glut_min3_r	semimem_r	semiten_r	bifemlh_r	bifemsh_r	sar_r	add_long_r	add_brev_r	add_mag1_r	add_mag2_r	add_mag3_r	tfl_r	pect_r	grac_r	glut_max1_r	glut_max2_r	glut_max3_r	iliacus_r	psoas_r	quad_fem_r	gem_r	peri_r	rect_fem_r	vas_med_r	vas_int_r	vas_lat_r	med_gas_r	lat_gas_r	soleus_r	tib_post_r	flex_dig_r	flex_hal_r	tib_ant_r	per_brev_r	per_long_r	per_tert_r	ext_dig_r	ext_hal_r	glut_med1_l	glut_med2_l	glut_med3_l	glut_min1_l	glut_min2_l	glut_min3_l	semimem_l	semiten_l	bifemlh_l	bifemsh_l	sar_l	add_long_l	add_brev_l	add_mag1_l	add_mag2_l	add_mag3_l	tfl_l	pect_l	grac_l	glut_max1_l	glut_max2_l	glut_max3_l	iliacus_l	psoas_l	quad_fem_l	gem_l	peri_l	rect_fem_l	vas_med_l	vas_int_l	vas_lat_l	med_gas_l	lat_gas_l	soleus_l	tib_post_l	flex_dig_l	flex_hal_l	tib_ant_l	per_brev_l	per_long_l	per_tert_l	ext_dig_l	ext_hal_l	ercspn_r	ercspn_l	intobl_r	intobl_l	extobl_r	extobl_l	femur_lat_meniscii_r.femur_lat_r.force.X	femur_lat_meniscii_r.femur_lat_r.force.Y	femur_lat_meniscii_r.femur_lat_r.force.Z	femur_lat_meniscii_r.femur_lat_r.torque.X	femur_lat_meniscii_r.femur_lat_r.torque.Y	femur_lat_meniscii_r.femur_lat_r.torque.Z	femur_lat_meniscii_r.meniscus_lat_r.force.X	femur_lat_meniscii_r.meniscus_lat_r.force.Y	femur_lat_meniscii_r.meniscus_lat_r.force.Z	femur_lat_meniscii_r.meniscus_lat_r.torque.X	femur_lat_meniscii_r.meniscus_lat_r.torque.Y	femur_lat_meniscii_r.meniscus_lat_r.torque.Z	femur_med_meniscii_r.femur_med_r.force.X	femur_med_meniscii_r.femur_med_r.force.Y	femur_med_meniscii_r.femur_med_r.force.Z	femur_med_meniscii_r.femur_med_r.torque.X	femur_med_meniscii_r.femur_med_r.torque.Y	femur_med_meniscii_r.femur_med_r.torque.Z	femur_med_meniscii_r.meniscus_med_r.force.X	femur_med_meniscii_r.meniscus_med_r.force.Y	femur_med_meniscii_r.meniscus_med_r.force.Z	femur_med_meniscii_r.meniscus_med_r.torque.X	femur_med_meniscii_r.meniscus_med_r.torque.Y	femur_med_meniscii_r.meniscus_med_r.torque.Z	femur_med_tibia_r.tibia_upper_r.force.X	femur_med_tibia_r.tibia_upper_r.force.Y	femur_med_tibia_r.tibia_upper_r.force.Z	femur_med_tibia_r.tibia_upper_r.torque.X	femur_med_tibia_r.tibia_upper_r.torque.Y	femur_med_tibia_r.tibia_upper_r.torque.Z	femur_med_tibia_r.femur_med_r.force.X	femur_med_tibia_r.femur_med_r.force.Y	femur_med_tibia_r.femur_med_r.force.Z	femur_med_tibia_r.femur_med_r.torque.X	femur_med_tibia_r.femur_med_r.torque.Y	femur_med_tibia_r.femur_med_r.torque.Z	femur_lat_tibia_r.tibia_upper_r.force.X	femur_lat_tibia_r.tibia_upper_r.force.Y	femur_lat_tibia_r.tibia_upper_r.force.Z	femur_lat_tibia_r.tibia_upper_r.torque.X	femur_lat_tibia_r.tibia_upper_r.torque.Y	femur_lat_tibia_r.tibia_upper_r.torque.Z	femur_lat_tibia_r.femur_lat_r.force.X	femur_lat_tibia_r.femur_lat_r.force.Y	femur_lat_tibia_r.femur_lat_r.force.Z	femur_lat_tibia_r.femur_lat_r.torque.X	femur_lat_tibia_r.femur_lat_r.torque.Y	femur_lat_tibia_r.femur_lat_r.torque.Z	aACL_R	pACL_R	aPCL_R	pPCL_R	aMCL_R	mMCL_R	pMCL_R	aLCL_R	mLCL_R	pLCL_R	aPCL_L	pPCL_L	aMCL_L	aLCL_L
      0.10336781	      1.46535893	     11.71199963	     12.62611467	      5.33894592	      6.11204449	      6.74627304	    121.43326350	    174.72078242	    231.44358747	    368.01728149	    126.60649787	     11.70402124	      8.26175970	      0.00000000	      4.92215469	      8.80423474	      5.08173099	      0.00000000	    100.80279397	      7.56962961	     11.53628020	      8.70998885	     33.81216340	     25.67014899	      7.11578116	      4.68845573	      3.04760543	     39.65531313	      0.00000000	      0.00000000	      0.00000000	     16.43217706	      1.92967907	      0.00000000	      2.50252367	      3.77342226	      1.03645162	     31.17296894	      2.29327763	      4.38845882	      7.46663497	     17.69505348	      5.57052736	      1.46535893	     11.71199963	     12.62611467	      5.33894592	      6.11204449	      6.74627304	      0.00000000	      8.84539321	     14.92546532	     14.71967579	      3.04172051	     11.70402124	      8.26175970	      0.00000000	      4.92215469	      8.80423474	      7.03616603	      0.00000000	      3.15753055	      7.56962961	     11.53628020	      8.70998885	     33.81216340	     25.67014899	      7.11578116	      4.68845573	      3.04760543	     24.19903929	      0.00000000	      0.00000000	      0.00000000	     14.28957438	      7.70052049	     57.64568507	     58.24559260	      8.41718632	      7.84463734	     16.92888430	      9.66605601	     22.00009963	      3.96051907	     10.97320419	      3.69907740	     50.28928158	     50.28928158	     19.13971761	     19.13971761	     36.02207444	     36.02207444	     91.78221094	    358.73943590	     45.26839661	    -27.26874266	      2.41879910	     36.51001337	    -91.78221094	   -358.73943590	    -45.26839661	     10.84403313	     -3.05050670	      1.79738680	    -43.84336697	     85.95017037	      9.65610732	     -1.86469756	      1.08098685	    -17.95996409	     43.84336697	    -85.95017037	     -9.65610732	     -1.61576220	     -1.06061082	      1.97563495	    -77.37597549	   -449.85147250	     92.32587414	    -10.35160141	      1.85051993	      0.37633961	     77.37597549	    449.85147250	    -92.32587414	     46.74004493	     -1.20925433	     33.24441530	    -25.92502240	    -98.18695203	    -23.62020132	      3.35265042	     -0.88693302	      0.00710657	     25.92502240	     98.18695203	     23.62020132	    -12.14043602	      0.61104533	     10.78501610	      5.65714346	    -11.58165053	      0.00000000	     50.39396152	      0.00000000	      0.00000000	    -41.48756741	      0.00000000	      0.00000000	      0.00000000	      0.00000000	      0.00000000	      0.00000001	      0.00000000
      0.10416473	      3.42644113	     11.64804045	     12.55826876	      5.31060292	      6.08077344	      6.71958062	    121.06533032	    173.99548427	    230.12771727	    366.94235884	    126.65692458	     11.63890642	      8.21829065	      0.00000000	      4.91338651	      8.75510533	      5.07709476	      0.00000000	    101.31133200	      7.52876624	     11.47240758	      8.66112405	     33.69133696	     25.53263795	      7.12027869	      4.66876871	      3.25621272	     39.50950227	      0.00000000	      0.00000000	      0.00000000	     17.28750829	      1.78467880	      0.00000000	      1.90105287	      3.43392505	      0.79524933	     30.98900894	      2.43650334	      4.40427670	      9.62573104	     17.62429107	      5.54582336	      3.42644113	     11.64804045	     12.55826876	      5.31060292	      6.08077344	      6.71958062	      0.00000000	      8.79440433	     14.93027174	     14.63985008	      3.02564485	     11.63890642	      8.21829065	      0.00000000	      4.91338651	      8.75510533	      7.00749434	      0.00000000	      3.14056844	      7.52876624	     11.47240758	      8.66112405	     33.69133696	     25.53263795	      7.12027869	      4.66876871	      3.25621272	     24.08282212	      0.00000000	      0.00000000	      0.00000000	     14.65611877	      7.83568014	     57.75177475	     58.16671459	      8.32594398	      7.74791389	     16.91759115	      9.63520687	     21.97036457	      3.93964480	     11.08681938	      3.74289659	     50.02176105	     50.02176105	     19.03121233	     19.03121233	     35.92188678	     35.92188678	     89.26209387	    353.51980854	     46.77653592	    -27.77826737	      2.34362940	     35.43665033	    -89.26209387	   -353.51980854	    -46.77653592	     10.75228802	     -2.98493487	      1.90020496	    -43.26841105	     87.19751939	     10.75095971	     -2.29040403	      1.05930003	    -17.72313052	     43.26841105	    -87.19751939	    -10.75095971	     -1.60845396	     -1.05291244	      1.97994324	    -82.57940578	   -456.41191759	     92.70305461	    -10.47260346	      1.94884532	      0.30595175	     82.57940578	    456.41191759	    -92.70305461	     47.00475359	     -1.30349635	     35.41399541	    -23.91603530	    -88.97705614	    -21.42245335	      3.03454065	     -0.81808671	      0.00998684	     23.91603530	     88.97705614	     21.42245335	    -11.00782634	      0.56528466	      9.94139271	      5.64731696	    -11.48299613	      0.00000000	     51.53348582	      0.00000000	      0.00000000	    -40.95202624	      0.00000000	      0.00000000	      0.00000000	      0.00000000	      0.00000000	      0.00000001	      0.00000000
      0.10541722	      5.62466002	     11.54880887	     12.45266534	      5.26667970	      6.03231989	      6.67676244	    120.41108888	    173.01220429	    227.91032975	    365.10261060	    126.71708696	     11.53801451	      8.15092347	      0.00000000	      4.89684334	      8.67868835	      5.07297836	      0.00000000	    101.62664388	      7.46521738	     11.37340148	      8.58540243	     33.50417748	     25.31961401	      7.11232478	      4.63823137	      3.55739122	     39.26223218	      0.00000000	      0.00000000	      0.00000000	     18.88475477	      1.59910986	      0.00000000	      0.93751812	      2.90758035	      0.44584440	     30.70605139	      2.69905089	      4.47231652	      9.44575585	     17.51062442	      5.50545929	      5.62466002	     11.54880887	     12.45266534	      5.26667970	      6.03231989	      6.67676244	      0.00000000	      8.71539903	     14.93043144	     14.51615683	      3.00073179	     11.53801451	      8.15092347	      0.00000000	      4.89684334	      8.67868835	      6.96279944	      0.00000000	      3.11428366	      7.46521738	     11.37340148	      8.58540243	     33.50417748	     25.31961401	      7.11232478	      4.63823137	      3.55739122	     23.90020890	      0.00000000	      0.00000000	      0.00000000	     15.19972276	      8.03635203	     57.89079488	     58.03980368	      8.18540308	      7.59846353	     16.89480012	      9.58562021	     21.92145755	      3.90726910	     11.25711705	      3.80651101	     49.60718762	     49.60718762	     18.86308117	     18.86308117	     35.76671580	     35.76671580	     84.84476087	    351.87386332	     47.66319520	    -28.10829835	      2.21574002	     33.53825104	    -84.84476087	   -351.87386332	    -47.66319520	     10.72050434	     -2.85857876	      2.15934261	    -42.06727404	     89.70808991	     11.86037296	     -2.68869064	      1.02625069	    -17.21354976	     42.06727404	    -89.70808991	    -11.86037296	     -1.63297493	     -1.03734075	      1.96901884	    -89.54026039	   -463.80165927	     94.91035948	    -10.68657926	      2.10212447	      0.22403972	     89.54026039	    463.80165927	    -94.91035948	     48.05428473	     -1.43114244	     38.30828360	    -20.80339015	    -74.95451238	    -18.01115469	      2.54813908	     -0.70992296	      0.01056769	     20.80339015	     74.95451238	     18.01115469	     -9.25540406	      0.49353223	      8.63703511	      5.30640129	    -11.59317498	      0.00000000	     53.92115293	      0.00000000	      0.00000000	    -40.61217314	      0.00000000	      0.00000000	      0.00000000	      0.00000000	      0.00000000	      0.00000001	      0.00000000
      0.10627967	      6.77883788	     11.48139641	     12.38071066	      5.23687076	      5.99944151	      6.64674454	    119.90200499	    172.40140686	    226.25949537	    363.67644397	    126.73652387	     11.46955496	      8.10520172	      0.00000000	      4.88369953	      8.62664271	      5.07175039	      0.00000000	    101.64850504	      7.42195320	     11.30619795	      8.53401710	     33.37721968	     25.17509736	      7.10025714	      4.61748935	      3.74786498	     39.11069308	      0.00000000	      0.00000000	      0.00000000	     20.16339447	      1.49700667	      0.00000000	      0.26594600	      2.55322969	      0.22874426	     30.54551432	      2.90238623	      4.54484695	      5.96403774	     17.43710392	      5.48253394	      6.77883788	     11.48139641	     12.38071066	      5.23687076	      5.99944151	      6.64674454	      0.00000000	      8.66178996	     14.92757787	     14.43222019	      2.98382386	     11.46955496	      8.10520172	      0.00000000	      4.88369953	      8.62664271	      6.93229129	      0.00000000	      3.09644625	      7.42195320	     11.30619795	      8.53401710	     33.37721968	     25.17509736	      7.10025714	      4.61748935	      3.74786498	     23.77458772	      0.00000000	      0.00000000	      0.00000000	     15.55231312	      8.16659524	     57.96779912	     57.95040325	      8.09080683	      7.49764021	     16.87564117	      9.55074247	     21.88626524	      3.88528041	     11.36734676	      3.84600568	     49.32583573	     49.32583573	     18.74899180	     18.74899180	     35.66147039	     35.66147039	     82.68274484	    350.31798360	     47.81502613	    -28.13046382	      2.14702192	     32.59873080	    -82.68274484	   -350.31798360	    -47.81502613	     10.66797570	     -2.78928435	      2.30332124	    -40.43129749	     90.75483011	     12.54761725	     -2.94465869	      0.98981288	    -16.52642772	     40.43129749	    -90.75483011	    -12.54761725	     -1.64057294	     -1.01428012	      1.92872840	    -93.53005649	   -467.26194135	     95.78293376	    -10.78208991	      2.19144128	      0.19027678	     93.53005649	    467.26194135	    -95.78293376	     48.47382113	     -1.50584772	     39.95948032	    -19.17643524	    -67.64602065	    -16.33089254	      2.29896187	     -0.65427408	      0.00983280	     19.17643524	     67.64602065	     16.33089254	     -8.38374709	      0.45593128	      7.95676119	      4.93673282	    -11.76951462	      0.00000000	     56.08962812	      0.00000000	      0.00000000	    -40.54569217	      0.00000000	      0.00000000	      0.00000000	      0.00000000	      0.00000000	      0.00000001	      0.00000000
